# Blender 4.0.1
# www.blender.org
mtllib env_stone3.mtl
o STONE-3-LOW
v -4.218194 -0.710978 3.443977
v 0.899078 -0.710397 6.144960
v -3.988023 0.358716 3.105473
v -4.594618 0.620751 2.650529
v -5.486534 -0.711017 2.774491
v -4.701365 0.600464 2.622496
v -5.332355 -0.706022 2.617926
v -4.565706 0.586459 2.421954
v -5.451155 -0.711017 2.558979
v -4.740784 0.660601 2.248134
v -2.999142 -0.711017 -3.858295
v -2.379015 1.806250 -2.588154
v -2.084855 -0.711017 -4.854830
v -1.268309 1.721809 -3.308746
v 6.536822 -0.711017 -3.644813
v 4.445434 1.812391 -2.493208
v 4.809465 -0.711017 -1.315155
v 3.241987 0.606307 -0.071463
v 4.882583 -0.711017 -1.218014
v 4.691001 1.226598 -0.442016
v 7.496173 -0.710517 1.138483
v 6.473285 1.135142 1.160719
v 7.527611 -0.709846 1.624973
v 6.569839 1.216510 1.674629
v 4.448555 -0.711017 5.213450
v 4.548141 0.865643 4.183520
v 4.230451 -0.715398 4.988755
v 4.013688 0.475307 3.960985
v 2.782753 -0.711017 6.702655
v 2.163476 0.480934 5.799551
v 2.218575 -0.711017 6.841670
v 1.596762 0.331407 6.165163
v -3.925521 0.620751 3.012089
v 1.031277 0.209693 5.907334
v 1.116794 0.620941 5.735668
v 1.482047 0.524328 6.039901
v 1.772137 0.677059 5.748592
v 2.037068 0.724469 5.614982
v 2.085336 0.746605 5.515063
v -4.243944 0.659237 2.561506
v -3.780002 0.654948 2.843246
v 0.371697 0.673194 5.022742
v 1.449119 0.744005 5.172112
v 0.828252 0.741357 4.837887
v -3.611696 2.840868 1.754318
v -2.105599 2.914206 -2.029840
v -3.320467 3.402967 1.626583
v -2.056883 3.402962 -1.680344
v -0.568787 2.450583 -2.626229
v -2.026739 3.235355 -1.867620
v -1.655646 2.876767 -2.240914
v 3.980875 2.374495 -2.236355
v 3.265345 1.708941 0.153277
v 4.642888 1.712768 -0.247348
v 5.989490 1.713084 0.967810
v 6.256996 1.525652 1.165628
v 6.338782 1.452256 1.401392
v 6.206517 1.365183 1.948361
v 5.396361 1.365186 2.892084
v 4.577166 1.333757 3.877590
v 4.624677 1.364958 3.791620
v 4.118657 1.275293 3.517064
v 2.614508 0.459701 2.547162
v 2.621992 1.110372 2.301974
v 2.075363 0.601486 4.127307
v -3.430387 2.698151 1.942227
v 1.800928 0.661740 4.535597
v -1.846762 5.333430 2.928558
v -2.588455 2.236491 2.705777
v -2.502146 3.016114 2.335895
v -0.900870 2.257073 3.723229
v 0.131429 2.257393 3.320282
v 1.313093 2.257424 2.858855
v 1.891708 1.588439 2.873919
v 2.494279 0.991022 2.728519
v 5.878755 1.489047 1.647829
v 5.639210 1.631720 1.509673
v 5.148628 1.403062 2.661268
v 5.013704 1.486299 2.477709
v 4.699453 1.404943 3.158805
v 4.727643 1.419955 2.920073
v 2.831504 1.305321 1.602202
v 4.389089 1.383411 2.670412
v 4.639606 1.471780 2.225470
v 4.666614 1.633489 0.614197
v 3.054623 1.511706 0.857517
v 2.039656 1.830670 2.211104
v 2.477282 3.217147 -1.287557
v 2.343988 2.148217 1.139194
v 1.639892 2.525933 1.696969
v 0.357732 2.887387 -1.971759
v 1.953499 2.784704 0.579443
v 2.634451 2.399558 0.157223
v 2.882735 2.989893 -1.543336
v 0.317699 3.306521 -1.474604
v -0.672205 3.046059 -1.916737
v -1.113891 3.364743 -1.598736
v -1.033769 4.988207 3.631701
v -3.117942 5.974588 1.826747
v -0.062372 4.988088 3.252725
v 0.873002 4.988027 2.887503
v 1.334977 5.368179 1.242691
v 1.875123 5.813965 -0.683895
v -0.178449 5.898129 -0.861792
v -0.677066 5.737716 1.166265
v -2.030026 5.974604 -1.022041
vn -0.4479 0.3230 0.8337
vn -0.4368 0.3564 0.8259
vn -0.7227 0.3511 -0.5954
vn -0.5001 0.4212 0.7566
vn -0.8646 0.3776 -0.3314
vn -0.5356 0.5296 -0.6577
vn 0.1182 0.4980 -0.8591
vn 0.7474 0.3665 0.5541
vn -0.3097 0.3748 -0.8738
vn 0.6312 0.3488 -0.6928
vn 0.8742 0.4619 -0.1497
vn 0.7098 0.3456 0.6138
vn -0.6188 0.4517 0.6427
vn 0.5710 0.6284 0.5283
vn 0.2385 0.6454 0.7256
vn -0.4477 0.2834 0.8481
vn -0.4135 0.4332 0.8008
vn -0.4341 0.4110 0.8016
vn -0.4883 0.3658 0.7923
vn 0.2830 0.6762 0.6802
vn 0.2395 0.6623 0.7099
vn -0.0861 0.9151 0.3940
vn 0.5117 0.6935 0.5071
vn -0.1473 0.9752 -0.1649
vn -0.0738 0.9879 0.1365
vn -0.0839 0.9846 0.1536
vn -0.0933 0.9815 0.1672
vn -0.0873 0.9827 0.1631
vn -0.0857 0.9847 0.1514
vn -0.8644 0.3752 -0.3348
vn -0.8726 0.3534 -0.3372
vn -0.4078 0.5192 -0.7511
vn -0.3367 0.4891 -0.8046
vn -0.7375 0.4399 -0.5124
vn 0.0068 0.6801 -0.7331
vn 0.0947 0.5744 -0.8131
vn 0.9047 0.1217 0.4082
vn -0.3043 0.2387 -0.9222
vn 0.6390 0.3206 -0.6992
vn 0.8358 0.5095 -0.2043
vn 0.7094 0.4002 -0.5801
vn 0.5251 0.8116 0.2562
vn 0.6748 0.4333 0.5975
vn 0.7106 0.3638 0.6023
vn -0.5948 0.4548 0.6629
vn -0.6369 0.3705 0.6761
vn 0.0574 0.9946 -0.0859
vn 0.0556 0.9932 -0.1022
vn 0.0500 0.9937 -0.1008
vn -0.4985 0.4333 0.7509
vn -0.4724 0.4206 0.7746
vn -0.4638 0.4217 0.7792
vn -0.4682 0.4203 0.7773
vn -0.4725 0.4199 0.7749
vn -0.4499 0.3596 0.8175
vn -0.4723 0.4200 0.7749
vn 0.2220 0.7292 0.6473
vn 0.2494 0.7383 0.6267
vn 0.6961 0.6102 0.3783
vn 0.9439 0.1069 0.3125
vn 0.6962 0.6101 0.3784
vn 0.1886 0.9596 0.2089
vn 0.3416 0.8747 0.3438
vn 0.1364 0.9792 0.1503
vn 0.2878 0.9085 0.3030
vn 0.0845 0.9938 0.0727
vn 0.1538 0.9703 0.1869
vn -0.2065 0.9765 0.0616
vn -0.1701 0.9833 0.0647
vn -0.1788 0.9745 0.1355
vn -0.1346 0.9867 0.0907
vn -0.0848 0.9920 0.0938
vn -0.0905 0.9913 0.0952
vn -0.1517 0.9718 0.1804
vn -0.0601 0.9933 0.0987
vn -0.0040 0.9848 0.1734
vn 0.6960 0.6101 0.3786
vn 0.6885 0.6319 0.3560
vn 0.6959 0.6104 0.3784
vn 0.6525 0.6559 0.3796
vn 0.6963 0.6103 0.3778
vn 0.6390 0.6903 0.3392
vn 0.6919 0.6197 0.3705
vn 0.6187 0.6975 0.3615
vn 0.6504 0.6695 0.3588
vn 0.6132 0.7142 0.3375
vn 0.0675 0.7905 -0.6087
vn 0.0795 0.7791 -0.6218
vn 0.0807 0.7692 -0.6339
vn 0.0852 0.7632 -0.6405
vn 0.0823 0.7588 -0.6461
vn 0.0841 0.7559 -0.6493
vn -0.6564 -0.0070 0.7544
vn -0.6569 -0.0070 0.7539
vn 0.3631 0.0488 0.9305
vn 0.3633 0.0488 0.9304
vn 0.9425 0.1489 0.2993
vn 0.9426 0.1489 0.2990
vn 0.9426 0.1490 0.2989
vn 0.0937 0.2460 -0.9647
vn 0.0936 0.2460 -0.9647
vn -0.9294 0.1007 -0.3550
vn 0.1465 0.9484 0.2812
vn 0.1272 0.9437 0.3053
vn 0.1363 0.9789 0.1525
vn 0.0983 0.9795 0.1760
vn 0.0336 0.9956 0.0870
vn 0.0011 -1.0000 -0.0006
vn 0.0001 -1.0000 0.0001
vn 0.0111 -0.9997 -0.0210
vn 0.0353 -0.9993 0.0135
vn -0.0040 -1.0000 -0.0007
vn -0.0001 -1.0000 -0.0006
vn 0.0108 -0.9999 0.0090
vn -0.0009 -1.0000 0.0018
vn -0.0000 -1.0000 -0.0000
vn -0.0001 -1.0000 -0.0000
vn -0.0018 -1.0000 -0.0009
vn -0.0011 -1.0000 0.0014
vt 0.846789 0.155800
vt 0.976704 0.421701
vt 0.931478 0.439103
vt 0.796989 0.187755
vt 0.771482 0.156330
vt 0.797718 0.093802
vt 0.760745 0.158476
vt 0.786295 0.094743
vt 0.633678 0.019939
vt 0.610353 0.091596
vt 0.598334 0.087344
vt 0.628894 0.015409
vt 0.330867 0.140061
vt 0.287668 0.002922
vt 0.001933 0.489715
vt 0.161202 0.454038
vt 0.168361 0.528397
vt 0.004125 0.566350
vt 0.350233 0.795930
vt 0.272991 0.975280
vt 0.807456 0.873235
vt 0.692159 0.737233
vt 0.783631 0.615866
vt 0.835954 0.727135
vt 0.207443 0.002345
vt 0.295829 0.114205
vt 0.208914 0.118246
vt 0.201863 0.006950
vt 0.109729 0.148104
vt 0.016711 0.090661
vt 0.097125 0.169425
vt 0.002199 0.113476
vt 0.086683 0.309032
vt 0.002199 0.371785
vt 0.103687 0.344681
vt 0.017099 0.381714
vt 0.926439 0.620286
vt 0.847105 0.601045
vt 0.920345 0.497126
vt 0.994186 0.526441
vt 0.936225 0.468685
vt 0.998183 0.497214
vt 0.784576 0.193961
vt 0.771598 0.160908
vt 0.910987 0.448073
vt 0.925325 0.464120
vt 0.912001 0.478043
vt 0.906757 0.490294
vt 0.902259 0.493025
vt 0.764311 0.176174
vt 0.775676 0.200497
vt 0.876839 0.410776
vt 0.884286 0.464771
vt 0.867277 0.434185
vt 0.546911 0.198416
vt 0.350585 0.199480
vt 0.534052 0.226824
vt 0.365273 0.224924
vt 0.231803 0.439197
vt 0.235934 0.467188
vt 0.252307 0.434927
vt 0.356247 0.216514
vt 0.236122 0.536492
vt 0.367539 0.756103
vt 0.666493 0.706968
vt 0.731303 0.591390
vt 0.271554 0.178416
vt 0.206449 0.143872
vt 0.139272 0.161873
vt 0.124467 0.161487
vt 0.115303 0.166643
vt 0.105428 0.187904
vt 0.107473 0.240875
vt 0.107835 0.289607
vt 0.106867 0.293862
vt 0.129963 0.301897
vt 0.233809 0.313805
vt 0.222830 0.353311
vt 0.760745 0.545227
vt 0.835205 0.500971
vt 0.853820 0.484764
vt 0.560801 0.200597
vt 0.583681 0.243672
vt 0.620439 0.106126
vt 0.616334 0.219402
vt 0.640633 0.124368
vt 0.812332 0.299450
vt 0.688599 0.297428
vt 0.816642 0.324463
vt 0.704680 0.350363
vt 0.835954 0.371143
vt 0.718654 0.416351
vt 0.835364 0.396773
vt 0.762319 0.437415
vt 0.822120 0.481858
vt 0.797866 0.464982
vt 0.786688 0.485915
vt 0.124411 0.186228
vt 0.137320 0.187312
vt 0.122491 0.239892
vt 0.132841 0.237107
vt 0.123379 0.269810
vt 0.129499 0.260972
vt 0.149222 0.263223
vt 0.251138 0.271898
vt 0.153382 0.238771
vt 0.192171 0.176945
vt 0.266666 0.225780
vt 0.741905 0.469035
vt 0.694677 0.476996
vt 0.769028 0.520381
vt 0.714258 0.521185
vt 0.750013 0.557030
vt 0.668443 0.529176
vt 0.689552 0.568316
vt 0.632434 0.641550
vt 0.619867 0.617383
vt 0.299081 0.562243
vt 0.384880 0.677154
vt 0.330089 0.543431
vt 0.391222 0.648074
vt 0.279452 0.507289
vt 0.290342 0.473702
vt 0.264229 0.426908
vt 0.586806 0.341916
vt 0.554962 0.332124
vt 0.511674 0.319697
vt 0.594039 0.373518
vt 0.600771 0.407049
vt 0.563285 0.461198
vt 0.500678 0.539272
vt 0.439416 0.447574
vt 0.396959 0.353581
vt 0.516315 0.392915
vt 0.554551 0.837863
vt 0.468958 0.800620
vt 0.588471 0.768788
vt 0.423989 0.747128
vt 0.437791 0.633291
vt 0.589752 0.766747
vt 0.441212 0.605076
vt 0.445202 0.606822
vt 0.445453 0.604204
vt 0.581595 0.604204
vt 0.426989 0.785944
vt 0.420425 0.776483
vt 0.466341 0.806248
vt 0.606510 0.614080
vt 0.645097 0.782245
vt 0.563335 0.833840
s 0
usemtl Material
f 1/1/1 2/2/1 34/3/1 3/4/1
f 1/1/2 3/4/2 6/5/2 5/6/2
f 5/6/3 6/5/3 8/7/3 7/8/3
f 7/9/4 8/10/4 10/11/4 9/12/4
f 9/12/5 10/11/5 12/13/5 11/14/5
f 11/15/6 12/16/6 14/17/6 13/18/6
f 13/18/7 14/17/7 16/19/7 15/20/7
f 15/21/8 16/22/8 18/23/8 17/24/8
f 17/25/9 18/26/9 20/27/9 19/28/9
f 19/28/10 20/27/10 22/29/10 21/30/10
f 21/30/11 22/29/11 24/31/11 23/32/11
f 23/32/12 24/31/12 26/33/12 25/34/12
f 25/34/13 26/33/13 28/35/13 27/36/13
f 27/37/14 28/38/14 30/39/14 29/40/14
f 29/40/15 30/39/15 32/41/15 31/42/15
f 31/42/16 32/41/16 34/3/16 2/2/16
f 6/5/17 3/4/17 33/43/17 4/44/17
f 3/4/18 34/3/18 35/45/18 33/43/18
f 34/3/19 32/41/19 36/46/19 35/45/19
f 32/41/20 30/39/20 37/47/20 36/46/20
f 37/47/21 30/39/21 38/48/21
f 36/46/22 37/47/22 35/45/22
f 30/39/23 28/38/23 39/49/23 38/48/23
f 6/5/24 4/44/24 40/50/24 8/7/24
f 4/44/25 33/43/25 41/51/25 40/50/25
f 33/43/26 35/45/26 42/52/26 41/51/26
f 38/48/27 39/49/27 43/53/27 37/47/27
f 37/47/28 43/53/28 42/52/28 35/45/28
f 42/52/29 43/53/29 44/54/29
f 12/13/30 10/11/30 45/55/30 46/56/30
f 46/56/31 45/55/31 47/57/31 48/58/31
f 12/16/32 46/59/32 51/60/32 14/17/32
f 51/60/33 46/59/33 50/61/33
f 46/56/34 48/58/34 50/62/34
f 14/17/35 51/60/35 49/63/35
f 14/17/36 49/63/36 52/64/36 16/19/36
f 16/22/37 52/65/37 53/66/37 18/23/37
f 18/26/38 53/67/38 54/68/38 20/27/38
f 20/27/39 54/68/39 55/69/39 22/29/39
f 24/31/40 22/29/40 56/70/40 57/71/40
f 22/29/41 55/69/41 56/70/41
f 24/31/42 57/71/42 58/72/42
f 24/31/43 58/72/43 59/73/43 26/33/43
f 26/33/44 59/73/44 61/74/44 60/75/44
f 26/33/45 60/75/45 62/76/45 28/35/45
f 28/35/46 62/76/46 64/77/46 63/78/46
f 28/38/47 63/79/47 65/80/47 39/49/47
f 39/49/48 65/80/48 67/81/48 43/53/48
f 43/53/49 67/81/49 44/54/49
f 10/11/50 8/10/50 66/82/50 45/55/50
f 45/55/51 66/82/51 70/83/51 47/57/51
f 8/10/52 40/84/52 69/85/52 66/82/52
f 40/84/53 41/86/53 69/85/53
f 66/82/54 69/85/54 70/83/54
f 41/86/55 42/87/55 71/88/55 69/85/55
f 69/85/56 71/88/56 70/83/56
f 42/87/57 44/89/57 72/90/57 71/88/57
f 44/89/58 67/91/58 73/92/58 72/90/58
f 67/91/59 65/93/59 74/94/59 73/92/59
f 65/93/60 63/95/60 75/96/60
f 63/95/60 64/97/60 75/96/60
f 65/93/61 75/96/61 74/94/61
f 57/71/62 56/70/62 76/98/62 58/72/62
f 56/70/63 55/69/63 77/99/63 76/98/63
f 58/72/64 76/98/64 78/100/64 59/73/64
f 76/98/65 77/99/65 79/101/65 78/100/65
f 59/73/66 78/100/66 80/102/66 61/74/66
f 78/100/67 79/101/67 81/103/67 80/102/67
f 62/76/68 60/75/68 61/74/68 80/102/68
f 80/102/69 81/103/69 83/104/69 62/76/69
f 62/76/70 83/104/70 82/105/70 64/77/70
f 81/103/71 79/101/71 84/106/71 83/104/71
f 55/69/72 54/68/72 85/107/72 77/99/72
f 77/99/73 85/107/73 84/106/73 79/101/73
f 83/104/74 84/106/74 86/108/74 82/105/74
f 84/106/75 85/107/75 86/108/75
f 54/68/76 53/67/76 86/108/76 85/107/76
f 75/96/77 64/97/77 87/109/77 74/94/77
f 74/94/78 87/109/78 90/110/78 73/92/78
f 64/97/79 82/111/79 89/112/79 87/109/79
f 87/109/80 89/112/80 90/110/80
f 82/111/81 86/113/81 89/112/81
f 89/112/82 92/114/82 90/110/82
f 86/113/83 53/66/83 93/115/83 89/112/83
f 89/112/84 93/115/84 92/114/84
f 53/66/85 52/65/85 94/116/85 93/115/85
f 93/115/86 94/116/86 88/117/86 92/114/86
f 52/64/87 49/63/87 91/118/87 94/119/87
f 94/119/88 91/118/88 95/120/88 88/121/88
f 49/63/89 51/60/89 96/122/89 91/118/89
f 91/118/90 96/122/90 97/123/90 95/120/90
f 96/122/91 51/60/91 97/123/91
f 50/61/92 48/124/92 97/123/92 51/60/92
f 70/83/93 71/88/93 98/125/93 68/126/93
f 70/83/94 68/126/94 99/127/94 47/57/94
f 71/88/95 72/90/95 100/128/95 98/125/95
f 72/90/96 73/92/96 101/129/96 100/128/96
f 73/92/97 90/110/97 102/130/97 101/129/97
f 90/110/98 92/114/98 102/130/98
f 92/114/99 88/117/99 103/131/99 102/130/99
f 88/121/100 95/120/100 104/132/100 103/131/100
f 95/120/100 97/123/100 104/132/100
f 97/123/101 48/124/101 106/133/101 104/132/101
f 48/58/102 47/57/102 99/127/102 106/133/102
f 101/129/103 102/130/103 105/134/103 100/128/103
f 98/125/104 100/128/104 105/134/104 68/126/104
f 99/127/105 68/126/105 105/134/105 106/133/105
f 103/131/106 104/132/106 105/134/106 102/130/106
f 104/132/107 106/133/107 105/134/107
f 23/135/108 27/136/108 19/137/108
f 2/138/109 1/139/109 17/140/109
f 1/139/110 5/141/110 7/142/110
f 7/142/111 9/143/111 11/144/111
f 1/139/112 7/142/112 11/144/112
f 29/145/113 31/146/113 2/138/113
f 23/135/114 25/147/114 27/136/114
f 27/136/115 29/145/115 2/138/115
f 1/139/116 11/144/116 17/140/116
f 2/138/117 17/140/117 19/137/117
f 11/144/116 13/148/116 17/140/116
f 13/148/116 15/149/116 17/140/116
f 27/136/118 2/138/118 19/137/118
f 21/150/119 23/135/119 19/137/119
