# Blender 4.0.1
# www.blender.org
mtllib env_stone6.mtl
o Plane.002
v 0.368999 -1.808718 -3.632675
v 2.375182 -1.808026 -3.663342
v 0.791372 -0.719932 -3.197823
v 1.949040 -0.995051 -3.327879
v 1.201310 0.335168 -2.778051
v 2.071089 0.227626 -2.838593
v 1.525464 1.169956 -2.445453
v 2.119955 0.802187 -2.622628
v 1.693063 1.601061 -2.272643
v 2.261527 1.152977 -2.559777
v 2.362314 1.333838 -2.527756
v 3.596355 0.772638 -3.634916
v 3.496185 1.265416 -3.353507
v 3.673098 0.395368 -3.850398
v 3.840016 -0.426797 -4.319768
v 4.121143 -1.808718 -5.109084
v 3.771476 1.265960 -3.278377
v 4.933481 -0.174389 -3.363229
v 5.939960 -1.807881 -3.816704
v 4.217701 0.679631 -3.260784
v 5.800592 1.266072 -2.722634
v 5.835900 0.875019 -2.773085
v 6.057345 0.363111 -2.757911
v 7.381336 -1.807616 -2.792804
v 5.945310 1.234100 -2.714335
v 7.829509 -1.808718 -2.475284
v 6.126375 1.166544 -2.492373
v 7.608976 -1.807856 -1.875157
v 6.360573 0.854897 -1.861792
v 7.386519 -1.808718 -1.266729
v 6.001472 0.963265 -1.466240
v 5.282861 1.256234 -1.881707
v 5.594474 1.136052 -1.707168
v 6.934094 -1.808081 -0.431077
v 4.578472 0.962896 0.831770
v 5.501364 -1.808718 2.217731
v 4.233068 1.109749 0.533418
v 3.948636 1.230730 0.286694
v 2.152679 0.618853 0.685094
v 1.663389 -1.808717 1.367521
v 2.243425 1.052395 0.247544
v 2.095728 1.119789 -0.027725
v 1.700054 0.751018 0.929934
v 1.250415 -1.805645 1.274834
v 0.639719 1.057738 1.503423
v -0.815753 -1.808718 2.122245
v 1.559963 1.208535 0.525768
v -0.225855 1.056919 1.900464
v -2.580083 -1.808718 2.415717
v -0.333708 0.815481 1.561899
v -1.846675 0.815268 1.812511
v 0.061666 0.706395 0.429724
v 0.541485 1.342604 0.495424
v 0.296689 0.872087 0.297965
v 0.966207 1.499981 -0.283074
v 0.502790 0.968195 -0.113900
v 1.212652 1.534294 -0.957648
v 0.938325 1.049154 -1.105639
v 1.462875 1.569136 -1.642965
v 1.219313 1.072047 -1.814263
v 0.877401 0.285820 -2.033361
v 1.174920 0.495673 -2.485992
v 0.484001 -0.976704 -2.766166
v 1.022436 0.179675 -2.546380
v 0.658226 -0.332580 -2.314393
v 0.250302 -1.808717 -3.056104
v 0.198476 -0.931910 -1.969438
v -0.040140 -1.808718 -1.645289
v -1.200886 -0.181020 -1.795383
v -0.861040 0.698069 -0.612114
v -0.652626 0.742635 0.202276
v -0.196397 0.831654 0.077595
v -2.689887 -1.808718 2.808522
v -2.008413 1.036364 3.027628
v -3.331338 -1.808718 3.468455
v -2.873246 0.715707 4.526290
v -6.843813 -1.807426 3.824972
v -6.586731 0.493815 5.006932
v -8.387163 -0.328977 5.442307
v -7.662758 0.429519 5.145795
v -8.230652 0.774678 4.636178
v -6.701405 -1.808718 1.594971
v -8.186570 1.251142 4.302558
v -7.788110 -1.808301 -0.381907
v -5.120248 0.013894 -2.710842
v -6.612676 -1.808718 0.206290
v -4.688649 -1.807672 -0.838743
v -4.258988 0.384565 -2.246190
v -4.498728 -1.808718 -0.667348
v -4.310806 0.889624 0.370719
v -3.678699 -1.040059 -0.999534
v -3.498051 0.712264 -1.835773
v -3.315991 -0.010648 -1.302829
v -3.057638 0.581428 -1.490944
v -2.283004 0.744438 -0.919410
v -2.127399 1.302295 -1.096372
v -1.550710 0.759619 -0.348766
v -1.272544 1.670259 -0.635087
v -1.550876 1.716042 1.192176
v -2.257967 1.753184 3.519833
v -1.833781 1.765285 3.083643
v -1.399578 -0.899764 -1.526929
v -1.606189 -1.808718 -1.297246
v -1.115068 0.429627 -1.973854
v -3.133923 1.091036 0.871738
v -1.662523 0.801555 0.583796
vn -0.0145 0.3754 -0.9268
vn -0.0166 0.3740 -0.9273
vn -0.0308 0.3696 -0.9287
vn -0.1370 0.3351 -0.9321
vn -0.2352 0.2950 -0.9261
vn -0.5280 0.3430 -0.7769
vn -0.5276 0.3378 -0.7794
vn -0.5204 0.3531 -0.7775
vn -0.5665 0.2239 -0.7931
vn -0.2791 0.8465 -0.4534
vn 0.5001 0.5038 -0.7043
vn 0.5000 0.5037 -0.7045
vn 0.4999 0.5037 -0.7046
vn 0.4411 0.4176 -0.7944
vn 0.2634 0.1617 -0.9510
vn 0.2961 0.2619 -0.9185
vn 0.4400 0.3743 -0.8163
vn 0.2059 0.0966 -0.9738
vn 0.4035 0.2134 -0.8898
vn 0.8648 0.4955 0.0817
vn 0.9013 0.4221 0.0979
vn 0.5014 0.8350 0.2265
vn 0.2487 0.9531 0.1725
vn 0.2348 0.9521 0.1960
vn 0.7741 0.4208 0.4730
vn 0.7720 0.4531 0.4458
vn 0.2761 0.9451 0.1749
vn 0.2627 0.9495 0.1718
vn -0.1659 0.3525 0.9210
vn -0.1315 0.7557 0.6415
vn -0.1041 0.9049 0.4127
vn 0.4830 0.0331 0.8750
vn 0.4150 0.0159 0.9097
vn -0.2065 0.3031 0.9303
vn 0.4516 0.6258 0.6360
vn 0.4972 0.6549 0.5690
vn 0.4169 -0.0155 0.9088
vn -0.9648 0.2108 0.1571
vn 0.1612 0.1779 0.9708
vn -0.7279 0.6212 -0.2903
vn -0.6687 0.5554 -0.4944
vn -0.7769 0.5572 -0.2931
vn -0.7797 0.5598 -0.2804
vn -0.8062 0.5180 -0.2858
vn -0.8252 0.4774 -0.3019
vn -0.8295 0.4510 -0.3294
vn -0.8261 0.4552 -0.3323
vn -0.8263 0.4549 -0.3322
vn -0.8332 0.4492 -0.3225
vn -0.8315 0.4517 -0.3234
vn -0.9348 0.2534 -0.2490
vn -0.8762 0.4005 -0.2683
vn -0.2444 -0.2180 -0.9448
vn -0.5085 0.4292 -0.7465
vn 0.0646 0.9778 -0.1991
vn -0.1976 0.9800 -0.0234
vn -0.1646 0.8850 0.4354
vn -0.1487 0.9769 0.1535
vn -0.1927 0.9812 -0.0043
vn 0.9531 -0.2330 0.1930
vn 0.8038 -0.2936 0.5173
vn 0.1168 -0.4323 0.8941
vn 0.3735 -0.3664 0.8522
vn -0.3113 0.5889 0.7458
vn -0.0400 0.7031 0.7099
vn -0.7790 -0.5828 0.2313
vn -0.8868 -0.4586 -0.0564
vn -0.8076 -0.2689 -0.5249
vn -0.0003 -1.0000 -0.0000
vn -0.0821 -0.8258 -0.5579
vn 0.5685 -0.5205 -0.6371
vn 0.2334 -0.5848 -0.7769
vn 0.5569 -0.4038 -0.7258
vn 0.4658 -0.4461 -0.7642
vn -0.2380 -0.2331 -0.9429
vn -0.2707 -0.2917 -0.9174
vn -0.2778 -0.2296 -0.9328
vn 0.5739 -0.3304 -0.7493
vn 0.5659 -0.3954 -0.7235
vn 0.9653 -0.2157 0.1471
vn 0.9620 -0.2233 0.1571
vn 0.8359 -0.0817 0.5428
vn 0.0407 0.7010 0.7120
vn -0.2211 -0.2383 -0.9457
vn -0.2093 -0.1930 -0.9586
vn 0.0446 0.9697 -0.2401
vn 0.0528 0.9942 -0.0942
vn 0.9624 -0.2308 0.1434
vn 0.0509 0.9973 -0.0522
vn 0.0147 0.9993 -0.0342
vn 0.0729 0.9949 -0.0704
vn 0.0189 0.9997 -0.0135
vn -0.0162 0.9988 0.0457
vn 0.3695 0.9200 0.1310
vn 0.2920 0.9455 0.1441
vn 0.1834 0.9601 0.2113
vn 0.2588 0.9611 0.0964
vn 0.1183 0.9585 0.2594
vn -0.7317 0.5405 -0.4153
vn -0.1688 0.9589 -0.2281
vn -0.3021 0.9349 -0.1864
vn -0.2499 0.9630 -0.1011
vn -0.3541 0.9318 -0.0793
vn -0.3064 0.9457 -0.1082
vn -0.1044 0.9744 -0.1992
vn -0.0000 -1.0000 -0.0000
vn 0.0001 -1.0000 0.0006
vn -0.0028 -1.0000 0.0004
vn -0.0000 -1.0000 -0.0001
vn 0.0007 -1.0000 -0.0007
vn 0.0019 -1.0000 -0.0007
vn 0.0003 -1.0000 0.0001
vn -0.0010 -1.0000 0.0002
vn -0.0000 -1.0000 -0.0002
vn 0.0016 -1.0000 0.0003
vn 0.0001 -1.0000 -0.0001
vn -0.0085 -1.0000 0.0048
vn 0.0002 -1.0000 -0.0001
vn -0.0003 -1.0000 0.0006
vn -0.0017 -1.0000 -0.0042
vt 0.898292 0.877955
vt 0.921679 0.819442
vt 0.979823 0.836821
vt 0.999820 0.882094
vt 0.944371 0.763251
vt 0.988085 0.770310
vt 0.961621 0.722001
vt 0.991173 0.739105
vt 0.968234 0.704844
vt 0.996907 0.720498
vt 0.999820 0.710043
vt 0.837140 0.430639
vt 0.825295 0.443205
vt 0.765906 0.413749
vt 0.768741 0.387954
vt 0.770908 0.368204
vt 0.848170 0.405198
vt 0.775640 0.325173
vt 0.871857 0.350550
vt 0.782492 0.252718
vt 0.869182 0.306622
vt 0.818159 0.449376
vt 0.753506 0.417487
vt 0.715985 0.260138
vt 0.738314 0.329027
vt 0.685868 0.369235
vt 0.626190 0.304106
vt 0.751590 0.370010
vt 0.757587 0.389019
vt 0.726244 0.398500
vt 0.664257 0.446923
vt 0.657448 0.430676
vt 0.640458 0.412123
vt 0.554175 0.336730
vt 0.657745 0.447701
vt 0.531691 0.346766
vt 0.509777 0.480422
vt 0.651362 0.459358
vt 0.518790 0.507491
vt 0.640296 0.486842
vt 0.528019 0.535177
vt 0.657069 0.502480
vt 0.689408 0.482205
vt 0.675520 0.490784
vt 0.545314 0.575211
vt 0.718302 0.603410
vt 0.605746 0.698273
vt 0.734700 0.589729
vt 0.748120 0.578353
vt 0.697672 0.752424
vt 0.721124 0.607499
vt 0.832503 0.603667
vt 0.871857 0.713460
vt 0.735960 0.591567
vt 0.825957 0.576166
vt 0.832227 0.563080
vt 0.959604 0.558864
vt 0.935802 0.559241
vt 0.924851 0.446677
vt 0.887878 0.556576
vt 0.821673 0.450113
vt 0.943582 0.446297
vt 0.966753 0.587488
vt 0.932636 0.586442
vt 0.858678 0.553116
vt 0.844967 0.558930
vt 0.439628 0.489138
vt 0.490288 0.600213
vt 0.423244 0.615080
vt 0.361437 0.506479
vt 0.888755 0.600429
vt 0.856285 0.608849
vt 0.868712 0.613485
vt 0.914917 0.629746
vt 0.881564 0.630873
vt 0.933566 0.656675
vt 0.911281 0.673445
vt 0.953325 0.683482
vt 0.933663 0.703979
vt 0.938102 0.748171
vt 0.927863 0.762560
vt 0.909813 0.741933
vt 0.892003 0.817206
vt 0.897218 0.776819
vt 0.857876 0.791292
vt 0.874607 0.859938
vt 0.816121 0.816525
vt 0.411082 0.796472
vt 0.421513 0.768668
vt 0.510587 0.766406
vt 0.507522 0.794839
vt 0.614224 0.713131
vt 0.597434 0.747935
vt 0.504614 0.701965
vt 0.609454 0.768774
vt 0.555443 0.656887
vt 0.590408 0.689549
vt 0.526196 0.640271
vt 0.539849 0.643242
vt 0.522584 0.660414
vt 0.500636 0.662757
vt 0.568682 0.465217
vt 0.427373 0.448035
vt 0.442938 0.388136
vt 0.576650 0.446463
vt 0.491042 0.315217
vt 0.600574 0.405841
vt 0.516512 0.182186
vt 0.439512 0.282171
vt 0.323750 0.156792
vt 0.402809 0.068822
vt 0.290196 0.120477
vt 0.280933 0.071773
vt 0.286576 0.071884
vt 0.252049 0.124330
vt 0.237708 0.146525
vt 0.000334 0.059493
vt 0.092005 0.015502
vt 0.190006 0.000607
vt 0.029728 0.008056
vt 0.052330 0.623608
vt 0.000334 0.593911
vt 0.138176 0.475931
vt 0.148216 0.596123
vt 0.184985 0.482325
vt 0.158032 0.602210
vt 0.200758 0.570628
vt 0.225919 0.486868
vt 0.228934 0.527502
vt 0.246178 0.501961
vt 0.491511 0.870726
vt 0.499121 0.828986
vt 0.572229 0.823611
vt 0.562042 0.864937
vt 0.593295 0.793616
vt 0.296871 0.487168
vt 0.290766 0.511437
vt 0.326393 0.480547
vt 0.334906 0.513688
vt 0.380347 0.498395
vt 0.371948 0.444021
vt 0.412574 0.378090
vt 0.418998 0.350604
vt 0.396741 0.844333
vt 0.361437 0.882094
vt 0.447081 0.734026
vt 0.470643 0.700365
vt 0.451425 0.663054
vt 0.964038 0.602172
vt 0.057754 0.318533
vt 0.253571 0.346691
vt 0.266537 0.382963
vt 0.306922 0.403888
vt 0.561704 0.096494
vt 0.565063 0.141951
vt 0.510560 0.119088
vt 0.592540 0.207756
vt 0.610812 0.237494
vt 0.587182 0.262433
vt 0.568461 0.282197
vt 0.562653 0.288344
vt 0.553980 0.283686
vt 0.533422 0.270280
vt 0.545185 0.278982
vt 0.587869 0.174051
vt 0.596403 0.177105
vt 0.566988 0.166577
vt 0.496133 0.242720
vt 0.517379 0.186044
vt 0.519684 0.179948
vt 0.511225 0.146619
vt 0.504809 0.116566
vt 0.496133 0.105362
vt 0.498280 0.051044
vt 0.531970 0.058029
vt 0.552949 0.062380
vt 0.564727 0.093968
s 0
usemtl Material
f 1/1/1 3/2/1 4/3/1 2/4/1
f 4/3/2 3/2/2 5/5/2 6/6/2
f 6/6/3 5/5/3 7/7/3 8/8/3
f 8/8/4 7/7/4 9/9/4 10/10/4
f 10/10/5 9/9/5 11/11/5
f 8/12/6 10/13/6 13/14/6 12/15/6
f 8/12/7 12/15/7 14/16/7 6/17/7
f 6/17/8 14/16/8 15/18/8 4/19/8
f 4/19/9 15/18/9 16/20/9 2/21/9
f 10/13/10 11/22/10 17/23/10 13/14/10
f 16/24/11 15/25/11 18/26/11 19/27/11
f 15/25/12 14/28/12 18/26/12
f 14/28/13 12/29/13 20/30/13 18/26/13
f 12/29/14 13/14/14 17/23/14 20/30/14
f 20/30/15 17/23/15 21/31/15 22/32/15
f 20/30/16 22/32/16 23/33/16 18/26/16
f 18/26/17 23/33/17 24/34/17 19/27/17
f 22/32/18 21/31/18 25/35/18 23/33/18
f 23/33/19 25/35/19 26/36/19 24/34/19
f 26/37/20 25/35/20 27/38/20 28/39/20
f 28/39/21 27/38/21 29/40/21 30/41/21
f 29/40/22 27/38/22 31/42/22
f 25/35/23 21/31/23 32/43/23 33/44/23
f 25/35/24 33/44/24 31/42/24 27/38/24
f 29/40/25 31/42/25 34/45/25 30/41/25
f 34/45/26 31/42/26 35/46/26 36/47/26
f 31/42/27 33/44/27 37/48/27 35/46/27
f 33/44/28 32/43/28 38/49/28 37/48/28
f 36/50/29 35/51/29 39/52/29 40/53/29
f 35/51/30 37/54/30 41/55/30 39/52/30
f 37/54/31 38/49/31 42/56/31 41/55/31
f 39/57/32 43/58/32 44/59/32
f 44/59/33 43/58/33 45/60/33 46/61/33
f 40/62/34 39/57/34 44/59/34
f 39/57/35 41/63/35 47/64/35 43/58/35
f 43/58/36 47/64/36 45/60/36
f 46/61/37 45/60/37 48/65/37
f 46/61/38 48/65/38 50/66/38
f 46/67/39 50/68/39 51/69/39 49/70/39
f 50/66/40 48/65/40 53/71/40 52/72/40
f 52/72/41 53/71/41 54/73/41
f 54/73/42 53/71/42 55/74/42 56/75/42
f 56/75/43 55/74/43 57/76/43 58/77/43
f 58/77/44 57/76/44 59/78/44 60/79/44
f 60/79/45 59/78/45 9/9/45 7/7/45
f 7/7/46 5/5/46 62/80/46 60/79/46
f 62/80/47 5/5/47 3/2/47 64/81/47
f 60/79/48 62/80/48 64/81/48 61/82/48
f 64/81/49 3/2/49 63/83/49 65/84/49
f 65/84/50 63/83/50 67/85/50
f 67/85/51 63/83/51 66/86/51 68/87/51
f 3/2/52 1/1/52 66/86/52 63/83/52
f 93/88/53 94/89/53 104/90/53 69/91/53
f 60/92/54 61/93/54 70/94/54
f 61/93/55 64/95/55 104/90/55 70/94/55
f 60/92/56 70/94/56 56/96/56 58/97/56
f 52/98/57 54/99/57 72/100/57 71/101/57
f 54/99/58 56/96/58 72/100/58
f 56/96/59 70/94/59 71/101/59 72/100/59
f 49/102/60 51/103/60 74/104/60 73/105/60
f 73/105/61 74/104/61 76/106/61 75/107/61
f 75/108/62 76/109/62 78/110/62 77/111/62
f 77/111/63 78/110/63 80/112/63 79/113/63
f 79/114/64 80/112/64 81/115/64
f 81/115/65 80/112/65 78/110/65 83/116/65
f 81/115/66 83/116/66 84/117/66 82/118/66
f 81/115/67 82/118/67 77/119/67
f 79/114/68 81/115/68 77/119/68
f 82/118/69 84/117/69 86/120/69
f 86/121/70 84/122/70 85/123/70 87/124/70
f 87/124/71 85/123/71 88/125/71 89/126/71
f 89/126/72 88/125/72 91/127/72
f 91/127/73 88/125/73 92/128/73 93/129/73
f 93/129/74 92/128/74 94/130/74
f 103/131/75 102/132/75 67/133/75 68/134/75
f 102/132/76 69/91/76 65/135/76 67/133/76
f 69/91/77 104/90/77 64/95/77 65/135/77
f 94/130/78 92/128/78 96/136/78 95/137/78
f 95/137/79 96/136/79 98/138/79 97/139/79
f 106/140/80 99/141/80 51/103/80
f 74/104/81 51/103/81 99/141/81 101/142/81
f 74/104/82 101/142/82 100/143/82 76/106/82
f 76/109/83 100/143/83 83/116/83 78/110/83
f 91/144/84 93/88/84 69/91/84 102/132/84
f 89/145/85 91/144/85 102/132/85 103/131/85
f 104/90/86 94/89/86 95/146/86 70/94/86
f 95/146/87 97/147/87 70/94/87
f 97/139/88 98/138/88 99/141/88 106/140/88
f 70/94/89 97/147/89 106/148/89 71/101/89
f 51/69/90 50/68/90 71/101/90 106/148/90
f 52/98/91 71/101/91 50/68/91
f 21/31/92 17/23/92 11/22/92 32/43/92
f 32/43/93 11/22/93 42/56/93 38/49/93
f 9/9/94 59/78/94 42/149/94 11/11/94
f 59/78/95 57/76/95 47/64/95 42/149/95
f 55/74/96 53/71/96 47/64/96 57/76/96
f 42/149/97 47/64/97 41/63/97
f 47/64/98 53/71/98 48/65/98 45/60/98
f 84/150/99 83/116/99 85/123/99
f 85/123/100 83/116/100 90/151/100 88/125/100
f 88/125/101 90/152/101 92/128/101
f 92/128/102 90/152/102 105/153/102 96/136/102
f 98/138/103 96/136/103 105/153/103 99/141/103
f 101/142/104 99/141/104 105/153/104 100/143/104
f 100/143/105 105/153/105 90/151/105 83/116/105
f 89/154/106 103/155/106 49/156/106
f 2/157/107 16/158/107 19/159/107
f 24/160/108 26/161/108 28/162/108
f 2/157/109 19/159/109 34/163/109
f 19/159/110 24/160/110 30/164/110
f 30/164/111 24/160/111 28/162/111
f 66/165/112 1/166/112 2/157/112
f 68/167/112 66/165/112 2/157/112
f 34/163/113 19/159/113 30/164/113
f 34/163/114 36/168/114 40/169/114
f 44/170/115 46/171/115 68/167/115
f 46/171/106 49/156/106 103/155/106
f 68/167/106 46/171/106 103/155/106
f 34/163/116 40/169/116 2/157/116
f 40/169/117 44/170/117 68/167/117
f 2/157/118 40/169/118 68/167/118
f 49/156/106 73/172/106 75/173/106
f 75/173/119 77/174/119 82/175/119
f 82/175/106 86/176/106 89/154/106
f 86/176/120 87/177/120 89/154/120
f 49/156/106 75/173/106 82/175/106
f 82/175/106 89/154/106 49/156/106
