# Blender 4.0.1
# www.blender.org
mtllib env_stone4.mtl
o Plane.002
v -5.416377 -5.435396 4.862168
v 1.431509 -5.434468 7.888411
v -3.325303 -1.405307 3.857854
v 1.005380 -2.639846 6.529178
v -5.983747 -5.433156 3.890929
v -3.892657 -1.403765 2.886402
v -4.652613 -5.436553 -5.506693
v -3.428436 -2.273929 -3.354302
v -3.039949 -5.436413 -4.704961
v -2.851702 -2.415587 -3.137048
v -2.128999 -5.433916 -4.250903
v -2.975187 -2.540106 -3.610766
v 2.323922 -5.436554 -3.693584
v 2.211509 -2.301482 -3.477085
v 4.858705 -5.435748 -0.797044
v 4.672020 -2.004222 -0.632794
v 5.450437 -4.346914 -0.005085
v 4.404212 -2.080216 0.388910
v 7.471758 -5.435473 0.520784
v 6.554531 -4.042218 0.531616
v 5.736548 -2.797714 0.542070
v -3.263284 -0.785886 3.260725
v -2.903851 -0.594039 3.655966
v 0.676077 -0.480403 5.478912
v -2.716380 0.197470 3.695917
v 0.571766 0.198699 5.148884
v 2.821920 -0.413621 2.804698
v 2.249099 -0.413912 1.077770
v -3.597697 -1.013593 2.137699
v -2.981659 -1.087959 -2.549718
v -2.210437 0.119174 0.043741
v -1.446298 0.173527 3.026279
v -1.074612 0.223989 1.024438
v -3.207381 -1.750145 -3.437612
v -2.934750 -0.433027 -2.563464
v -2.353747 0.818087 -0.106636
v -2.050590 1.469137 1.172991
v -0.488888 0.109955 1.426742
v -0.404842 0.039583 1.459537
v -0.643655 0.168035 3.112769
v 4.088035 -0.732616 -0.713218
v 2.174181 -1.277536 -3.407073
v 3.799219 -0.810805 0.344267
v 3.142740 0.570870 0.295299
v 1.072546 1.083927 0.541474
v 2.185110 2.585451 0.223619
v 3.505434 0.595421 -0.919494
v 2.112897 0.341869 -3.295512
v 2.567587 2.661932 -1.138911
v 2.002412 3.493028 -3.078432
v -2.720036 -0.323771 -3.236992
v -1.548487 3.102305 -2.755466
v -2.331656 3.423721 -1.907273
v -2.024633 3.595542 -0.581498
v -2.117789 4.042409 1.280747
v 0.986474 4.515493 0.399741
v 0.499028 4.043128 0.779158
v 1.077284 4.914501 0.141380
v 1.684824 4.691838 -1.479342
v -0.123135 4.832120 -1.364036
v 1.035944 5.099589 0.037149
v 1.503236 5.099270 -1.507357
v 1.944555 5.100271 -2.967710
v -1.623775 4.893014 0.555408
v 0.134685 5.030026 0.213007
v -1.925300 4.395291 -0.564512
v -2.267889 3.828757 -1.838601
v -1.299828 3.828865 -2.653509
vn -0.3852 0.3845 0.8389
vn -0.7485 0.4977 0.4382
vn -0.8930 0.4319 -0.1266
vn 0.4078 0.4005 -0.8205
vn -0.8886 -0.3303 0.3184
vn 0.4079 0.4005 -0.8205
vn 0.0670 0.1508 -0.9863
vn 0.7506 0.0723 -0.6568
vn 0.9279 0.2296 -0.2939
vn 0.3998 0.3291 -0.8555
vn 0.3041 0.2668 -0.9145
vn 0.7095 0.4117 0.5720
vn -0.7486 0.4975 0.4383
vn -0.4207 0.3634 0.8312
vn 0.7198 0.4130 0.5579
vn -0.4247 0.1983 0.8834
vn 0.7282 0.3436 0.5929
vn 0.5270 0.8206 -0.2210
vn -0.7209 0.6889 0.0750
vn -0.8960 0.4261 -0.1254
vn -0.6929 0.7175 -0.0709
vn -0.8596 0.5068 -0.0649
vn -0.0323 0.9994 -0.0099
vn 0.4076 0.4025 -0.8197
vn -0.8733 -0.2900 0.3915
vn -0.9783 0.0741 0.1934
vn -0.9610 -0.0352 0.2744
vn -0.7040 -0.4048 0.5835
vn -0.5606 -0.5246 0.6407
vn 0.0824 0.9966 0.0097
vn 0.1714 0.9845 -0.0378
vn 0.0086 0.9998 -0.0200
vn 0.1553 0.9820 -0.1075
vn 0.0064 0.1338 -0.9910
vn 0.7536 0.2011 -0.6258
vn 0.8687 0.4194 0.2637
vn 0.4658 0.2516 0.8483
vn 0.1800 0.2730 0.9450
vn 0.2145 0.4459 0.8690
vn 0.8665 0.4214 0.2675
vn 0.8151 0.1602 -0.5568
vn 0.8666 0.4215 0.2671
vn 0.9045 0.1816 -0.3860
vn -0.0143 0.1039 -0.9945
vn -0.9094 0.3437 -0.2342
vn -0.0596 0.1149 -0.9916
vn -0.7851 0.2778 -0.5536
vn -0.9749 0.1321 0.1792
vn -0.9975 0.0521 0.0484
vn 0.1910 -0.0391 0.9808
vn 0.2985 0.0988 0.9493
vn 0.5841 0.0481 0.8103
vn 0.8666 0.4216 0.2669
vn 0.9681 0.2506 0.0044
vn 0.8794 0.3914 0.2711
vn 0.8740 0.4077 0.2644
vn 0.1394 0.5628 0.8147
vn 0.1371 0.5305 0.8365
vn 0.1276 0.5153 0.8475
vn -0.9453 0.3241 -0.0366
vn -0.9708 0.1165 0.2095
vn -0.6326 0.2833 -0.7208
vn -0.1170 0.0996 -0.9881
vn -0.3361 0.8787 -0.3389
vn -0.2184 0.9549 -0.2010
vn -0.1406 0.9874 -0.0721
vn -0.3129 0.9162 -0.2503
vn -0.0000 -1.0000 0.0002
vn 0.0001 -1.0000 0.0002
vn -0.0023 -1.0000 -0.0010
vn -0.0002 -1.0000 -0.0002
vn -0.0001 -1.0000 0.0003
vn -0.0007 -1.0000 0.0009
vn 0.0022 -1.0000 0.0011
vt 0.436591 0.252573
vt 0.734960 0.284944
vt 0.684605 0.400161
vt 0.477530 0.434427
vt 0.984530 0.471995
vt 0.808058 0.422927
vt 0.822165 0.381016
vt 0.998093 0.429359
vt 0.854318 0.136017
vt 0.990783 0.056153
vt 0.836132 0.118972
vt 0.928793 0.021897
vt 0.025262 0.191026
vt 0.008298 0.180715
vt 0.029849 0.061517
vt 0.893672 0.002599
vt 0.378351 0.912276
vt 0.292453 0.822121
vt 0.473122 0.715391
vt 0.537291 0.825037
vt 0.537291 0.081763
vt 0.469635 0.190246
vt 0.331537 0.123489
vt 0.402200 0.002764
vt 0.307339 0.003681
vt 0.274521 0.132828
vt 0.233639 0.129548
vt 0.259935 0.035260
vt 0.117532 0.002880
vt 0.082749 0.049040
vt 0.034311 0.060212
vt 0.002519 0.002880
vt 0.112993 0.143651
vt 0.062650 0.111423
vt 0.873098 0.822727
vt 0.812681 0.800286
vt 0.753711 0.485449
vt 0.870921 0.454637
vt 0.772153 0.413244
vt 0.786528 0.395498
vt 0.645819 0.489245
vt 0.485744 0.471048
vt 0.758723 0.780299
vt 0.663129 0.509211
vt 0.633621 0.517260
vt 0.490184 0.503391
vt 0.661555 0.640812
vt 0.700350 0.762596
vt 0.613855 0.691230
vt 0.804547 0.351185
vt 0.803364 0.166195
vt 0.740768 0.264716
vt 0.740768 0.409206
vt 0.436591 0.640457
vt 0.521298 0.551659
vt 0.495385 0.628520
vt 0.029849 0.248124
vt 0.002341 0.213241
vt 0.156995 0.782172
vt 0.136239 0.742792
vt 0.147814 0.719257
vt 0.059414 0.652371
vt 0.078229 0.630549
vt 0.003233 0.632606
vt 0.043470 0.584245
vt 0.002191 0.012468
vt 0.020522 0.072238
vt 0.002912 0.094438
vt 0.002191 0.098876
vt 0.550890 0.564371
vt 0.523921 0.625882
vt 0.268914 0.797597
vt 0.452421 0.679430
vt 0.447916 0.225910
vt 0.319976 0.179291
vt 0.270997 0.186997
vt 0.228544 0.183896
vt 0.223124 0.243373
vt 0.168810 0.217346
vt 0.217743 0.328838
vt 0.156518 0.292543
vt 0.048216 0.356305
vt 0.078220 0.279336
vt 0.272447 0.243735
vt 0.414048 0.282610
vt 0.310772 0.238131
vt 0.271494 0.331820
vt 0.351867 0.395065
vt 0.292495 0.329010
vt 0.259227 0.736930
vt 0.419739 0.622519
vt 0.175515 0.725136
vt 0.235848 0.591219
vt 0.356809 0.511413
vt 0.181996 0.571350
vt 0.222942 0.589599
vt 0.141467 0.542131
vt 0.086973 0.490331
vt 0.175588 0.399543
vt 0.090838 0.448961
vt 0.212765 0.416969
vt 0.201378 0.406033
vt 0.272827 0.417917
vt 0.324732 0.454729
vt 0.267315 0.434871
vt 0.215261 0.423650
vt 0.189625 0.437961
vt 0.132627 0.472137
vt 0.156704 0.514795
vt 0.184957 0.556747
vt 0.230774 0.560336
vt 0.225617 0.482392
vt 0.203768 0.141785
vt 0.109383 0.115602
vt 0.205301 0.111736
vt 0.109383 0.038630
vt 0.116158 0.029258
vt 0.208741 0.031672
vt 0.210063 0.002722
vt 0.209226 0.021219
vt 0.222006 0.075862
s 0
usemtl Material
f 1/1/1 2/2/1 4/3/1 3/4/1
f 1/5/2 3/6/2 6/7/2 5/8/2
f 5/8/3 6/7/3 8/9/3 7/10/3
f 7/10/4 8/9/4 10/11/4 9/12/4
f 10/13/5 12/14/5 11/15/5
f 9/12/6 10/11/6 11/16/6
f 11/17/7 12/18/7 14/19/7 13/20/7
f 13/21/8 14/22/8 16/23/8 15/24/8
f 15/25/9 16/26/9 18/27/9 17/28/9
f 15/29/10 17/30/10 20/31/10 19/32/10
f 17/30/11 18/33/11 21/34/11 20/31/11
f 19/35/12 20/36/12 4/37/12 2/38/12
f 6/7/13 3/6/13 23/39/13 22/40/13
f 3/4/14 4/3/14 24/41/14 23/42/14
f 4/37/15 20/36/15 21/43/15 24/44/15
f 23/42/16 24/41/16 26/45/16 25/46/16
f 24/44/17 21/43/17 27/47/17 26/45/17
f 21/43/18 18/48/18 28/49/18 27/47/18
f 6/7/19 22/40/19 29/50/19
f 6/7/20 29/50/20 30/51/20 8/9/20
f 30/51/21 29/50/21 22/40/21 31/52/21
f 22/40/22 23/39/22 25/53/22 31/52/22
f 31/54/23 25/46/23 32/55/23 33/56/23
f 8/9/24 30/51/24 10/11/24
f 10/13/25 30/57/25 34/58/25 12/14/25
f 34/59/26 30/60/26 35/61/26
f 30/60/27 31/62/27 36/63/27 35/61/27
f 31/62/28 33/64/28 37/65/28 36/63/28
f 37/66/29 33/67/29 38/68/29 39/69/29
f 33/56/30 32/55/30 40/70/30 38/71/30
f 38/71/31 40/70/31 27/47/31 28/49/31
f 25/46/32 26/45/32 40/70/32 32/55/32
f 26/45/33 27/47/33 40/70/33
f 12/18/34 34/72/34 42/73/34 14/19/34
f 14/22/35 42/74/35 41/75/35 16/23/35
f 16/26/36 41/76/36 43/77/36 18/27/36
f 18/27/37 43/77/37 44/78/37 28/79/37
f 28/79/38 44/78/38 46/80/38 45/81/38
f 28/79/39 45/81/39 37/82/39 38/83/39
f 43/77/40 41/76/40 47/84/40 44/78/40
f 41/75/41 42/74/41 48/85/41 47/86/41
f 44/78/42 47/84/42 49/87/42 46/80/42
f 47/86/43 48/85/43 50/88/43 49/89/43
f 42/73/44 34/72/44 51/90/44 48/91/44
f 34/59/45 35/61/45 51/92/45
f 48/91/46 51/90/46 52/93/46 50/94/46
f 51/92/47 35/61/47 53/95/47 52/96/47
f 35/61/48 36/63/48 54/97/48 53/95/48
f 36/63/49 37/65/49 55/98/49 54/97/49
f 37/82/50 45/81/50 57/99/50 55/100/50
f 45/81/51 46/80/51 58/101/51 56/102/51
f 45/81/52 56/102/52 57/99/52
f 46/80/53 49/87/53 59/103/53 58/101/53
f 49/89/54 50/88/54 63/104/54 59/103/54
f 58/101/55 59/103/55 62/105/55 61/106/55
f 59/103/56 63/104/56 62/105/56
f 55/100/57 57/99/57 65/107/57 64/108/57
f 57/99/58 56/102/58 65/107/58
f 58/101/59 61/106/59 65/107/59 56/102/59
f 55/98/60 64/108/60 66/109/60 54/97/60
f 54/97/61 66/109/61 67/110/61 53/95/61
f 53/95/62 67/110/62 68/111/62 52/96/62
f 52/93/63 68/111/63 63/104/63 50/94/63
f 67/110/64 66/109/64 60/112/64 68/111/64
f 64/108/65 65/107/65 60/112/65 66/109/65
f 61/106/66 62/105/66 60/112/66 65/107/66
f 63/104/67 68/111/67 60/112/67 62/105/67
f 19/113/68 2/114/68 15/115/68
f 2/114/69 1/116/69 15/115/69
f 1/116/70 5/117/70 11/118/70
f 15/115/71 1/116/71 11/118/71
f 5/117/72 7/119/72 9/120/72
f 11/118/73 13/121/73 15/115/73
f 5/117/74 9/120/74 11/118/74
